<svg xmlns="http://www.w3.org/2000/svg" width="53.23" height="53.259" viewBox="0 0 53.23 53.259">
  <g id="svgg" transform="translate(0 -0.07)">
    <path id="path0" d="M14.579.13c-.427.172-.44.368-.44,6.943v6.3H.452l-.226.241L0,13.849,0,30.217c0,13.264.029,16.4.138,16.546.22.289.648.394,1.606.394h.9l-.033,2.617c-.035,2.81-.018,3,.3,3.311s47.079.324,47.4,0,.33-.5.3-3.311l-.033-2.617h.9c.959,0,1.387-.1,1.606-.394.11-.144.136-3.285.138-16.56l0-16.382-.241-.226-.241-.226H39.091v-6.3c0-6.654-.008-6.77-.473-6.948C38.418.048,14.77.053,14.579.13M37.22,18.287V34.643l-.806.008c-3.014.029-4.8,3.632-2.864,5.772.092.1.149.2.125.217l-.587.423a4.056,4.056,0,0,0-.761.7c-.269.378-.365.381-.555.018a6.935,6.935,0,0,0-1.67-1.663c-.231-.144-.439-.278-.461-.3a1.632,1.632,0,0,1,.351-.469,4.464,4.464,0,1,0-6.841-.125,3.086,3.086,0,0,1,.431.6c-.019.016-.224.147-.455.291a6.935,6.935,0,0,0-1.67,1.663c-.19.362-.286.359-.555-.018a4.056,4.056,0,0,0-.761-.7l-.588-.424c-.024-.018.052-.138.17-.266,1.914-2.093.094-5.744-2.855-5.727l-.858,0V1.932H37.22V18.287M20.633,3.85l-.255.255,0,3.929c0,4.136,0,4.124.484,4.38.323.172,11.179.172,11.5,0,.482-.256.48-.244.484-4.38l0-3.929L32.6,3.85,32.343,3.6H20.888l-.255.255M30.982,8.066v2.6H22.249v-5.2h8.733v2.6m-8.837,7.07v.936h1.871V14.2H22.145v.936m3.535,0v.936h1.871V14.2H25.68v.936m3.535,0v.936h1.871V14.2H29.214v.936M14.139,25.528V35.817l-.313.494a3.663,3.663,0,0,0,.069,3.921c.255.387.259.41.074.512a6.328,6.328,0,0,0-2.221,2.937c0,.261-.215.265-.518.01a2.287,2.287,0,0,0-.44-.306c-.107-.039-.108-.087,0-.244,1.361-2.061.834-4.468-1.2-5.467a3.589,3.589,0,0,0-4.5,5.32l.213.3-.339.232a5.38,5.38,0,0,0-1.342,1.317l-.307.442H1.871V15.239H14.139V25.528m37.22,4.734V45.286H49.914l-.307-.442a5.38,5.38,0,0,0-1.342-1.317l-.339-.232.213-.3a3.586,3.586,0,0,0-4.53-5.3c-2.024,1.033-2.526,3.384-1.164,5.445.1.156.1.2,0,.244a2.288,2.288,0,0,0-.44.306c-.3.255-.518.252-.518-.01a6.328,6.328,0,0,0-2.221-2.937c-.185-.1-.181-.126.074-.512a3.663,3.663,0,0,0,.069-3.921l-.313-.494V15.239H51.359V30.262M18.61,18.67v.936h1.871V17.735H18.61v.936m3.535,0v.936h1.871V17.735H22.145v.936m3.535,0v.936h1.871V17.735H25.68v.936m3.535,0v.936h1.871V17.735H29.214v.936m3.535,0v.936h1.871V17.735H32.749v.936M4.367,27.559v7.122H6.238V20.438H4.367v7.122m5.3,0v7.122H11.54V20.438H9.669v7.122m32.021,0v7.122h1.871V20.438H41.69v7.122m5.3,0v7.122h1.871V20.438H46.993v7.122M18.61,22.205v.936h1.871V21.269H18.61v.936m3.535,0v.936h1.871V21.269H22.145v.936m3.535,0v.936h1.871V21.269H25.68v.936m3.535,0v.936h1.871V21.269H29.214v.936m3.535,0v.936h1.871V21.269H32.749v.936M18.61,25.74v.936h1.871V24.8H18.61v.936m3.535,0v.936h1.871V24.8H22.145v.936m3.535,0v.936h1.871V24.8H25.68v.936m3.535,0v.936h1.871V24.8H29.214v.936m3.535,0v.936h1.871V24.8H32.749v.936M18.61,29.379v.936h1.871V28.443H18.61v.936m3.535,0v.936h1.871V28.443H22.145v.936m3.535,0v.936h1.871V28.443H25.68v.936m3.535,0v.936h1.871V28.443H29.214v.936m3.535,0v.936h1.871V28.443H32.749v.936m-5.011,4.74a2.548,2.548,0,0,1,.723,4.091,2.579,2.579,0,0,1-4.423-1.568,2.619,2.619,0,0,1,2.577-2.792,2.315,2.315,0,0,1,1.123.269m-10.048,2.6a1.743,1.743,0,0,1,.829,1.857,1.691,1.691,0,1,1-.829-1.857m19.373-.053a1.685,1.685,0,1,1-2.379,1.556,1.672,1.672,0,0,1,2.379-1.556M8.775,39.387a1.685,1.685,0,0,1-.644,3.165,1.647,1.647,0,0,1-1.518-.728,1.675,1.675,0,0,1,2.162-2.436m37.17-.054a2.539,2.539,0,0,1,.672.577c1.171,1.466-.885,3.456-2.387,2.31-1.576-1.2-.043-3.783,1.715-2.887M27.354,41.025a4.538,4.538,0,0,1,3.054,2.154c.526.939.574,1.353.574,4.936V51.42H22.249V48.114a21.72,21.72,0,0,1,.148-3.873,4.373,4.373,0,0,1,4.957-3.217M18.38,42.2c1.73.885,2,1.712,2,6.162V51.42h-7.07V48.482c0-4.16.147-4.785,1.37-5.881a3.626,3.626,0,0,1,3.7-.4m19.464-.023c1.768.831,2.077,1.77,2.079,6.3V51.42h-7.07V48.367c0-1.679.048-3.3.106-3.609a3.468,3.468,0,0,1,4.885-2.576M9.051,44.663c1.741.469,2.385,1.743,2.385,4.715V51.42H4.449l.039-2.105c.037-2.011.051-2.131.311-2.69a3.468,3.468,0,0,1,4.253-1.961m37.7.213c1.551.747,1.944,1.621,2,4.438l.039,2.105h-7l.032-2.209c.03-2.119.042-2.23.292-2.72a3.421,3.421,0,0,1,4.641-1.615" fill="#fff" fill-rule="evenodd"/>
  </g>
</svg>
