<svg xmlns="http://www.w3.org/2000/svg" width="57.474" height="54.555" viewBox="0 0 57.474 54.555">
  <g id="svgg" transform="translate(-12.109 -21.167)">
    <path id="path0" d="M37.682,21.33a12.075,12.075,0,0,0-9.791,9.388l-.133.657-7.248.06c-8.072.067-7.5,0-8.154.883l-.246.33V74.566l.246.33a3.421,3.421,0,0,0,.576.577l.33.246H40.774c30.736,0,27.99.078,28.533-.813.367-.6.367-42,0-42.6-.512-.839-.219-.809-8.195-.847l-7.174-.034-.267-1.088a12.1,12.1,0,0,0-9.695-9.007,30.314,30.314,0,0,0-6.3,0m6.54,3.625c2.9.879,6.03,4.107,6.072,6.27,0,.2-.526.209-9.5.209-5.226,0-9.5-.024-9.5-.053,0-1.372,2.332-4.541,4.071-5.534a13.664,13.664,0,0,1,8.857-.892M66.076,41.76V48.5l-.388.069c-.214.038-5.893.935-12.621,1.994L40.833,52.489,28.26,50.508c-6.915-1.09-12.612-1.981-12.659-1.981s-.086-3.039-.086-6.753V35.021h50.56v6.74M25.058,53.547c4.995.789,9.113,1.434,9.152,1.434s.071,1.412.072,3.137c0,4.661-.6,4.273,6.612,4.273H46.2l.406-.271c.779-.52.824-.746.824-4.121,0-1.66.023-3.018.052-3.018s4.138-.645,9.132-1.434,9.167-1.434,9.272-1.434c.173,0,.191.928.191,10.04v10.04H15.516V62.153c0-9.839,0-10.04.231-10.04.127,0,4.317.645,9.312,1.434m14,2.211a9.308,9.308,0,0,0,3.526,0c.592-.1,1.143-.177,1.225-.177.112,0,.149.414.149,1.673v1.673H37.748V57.253c0-1.259.037-1.673.149-1.673.082,0,.607.081,1.165.179" transform="translate(0)" fill="#fff" fill-rule="evenodd"/>
  </g>
</svg>
