<svg id="svgg" xmlns="http://www.w3.org/2000/svg" width="66.061" height="58.641" viewBox="0 0 66.061 58.641">
  <path id="path0" d="M20.4,22.361c-.286.286-.322.408-.257.879l.075.547L9.934,32.378C4.276,37.1-.388,41.06-.431,41.172c-.471,1.227-.3,1.4,4.265,4.478l3.984,2.682,2.115,4.641C12.224,58,12.288,58.1,13.249,58.1c.731,0-.395.887,11.4-8.985,5.439-4.553,9.931-8.275,9.984-8.27.081.007,2.156,2.455,4.608,5.436l.61.742-.611.653-.611.653.052.812c.049.774.088.856.82,1.735.422.508.905,1.094,1.073,1.3l.306.379-.315.677c-.173.373-1.151,2.741-2.174,5.264l-1.858,4.586-9.194,7.072c-5.057,3.89-9.3,7.2-9.426,7.367a1.977,1.977,0,0,0,.649,2.767c.623.311,21.155.352,21.752.043.195-.1,1.63-1.483,3.19-3.071l2.836-2.888,2.975-.221c4.213-.313,4.68-.492,7.2-2.757,2.459-2.21,3.044-2.671,3.625-2.856.6-.19,1.14-.623,3.267-2.606,1.715-1.6,2.047-2.169,2.047-3.518a3.246,3.246,0,0,0-1.986-3.165l-.5-.226.029-.9a3.483,3.483,0,0,0-3.15-3.629c-.085,0-.19-.271-.235-.612a3.543,3.543,0,0,0-2.648-2.889c-.63-.145-.653-.166-.653-.6,0-2.867-4.031-4.38-5.968-2.24-.235.26-.235.26-.966-.078a3.612,3.612,0,0,0-1.807-.348l-1.076-.01-.934-1.09c-1.556-1.815-2.344-2.12-3.48-1.345-.66.451.5,1.712-10.375-11.275C20.416,20.536,21.308,21.457,20.4,22.361m7.048,9.849c3.151,3.758,5.739,6.874,5.753,6.925.022.086-19.437,16.411-19.655,16.489-.054.019-.964-1.864-2.022-4.185-2.29-5.025-1.643-4.252-6.024-7.194a30.942,30.942,0,0,1-3.478-2.514c.3-.3,19.57-16.351,19.629-16.352.038,0,2.646,3.073,5.8,6.831M43.926,47.935c.809.968.857.764-.476,2l-1.128,1.044-.8-.94-.8-.94,1.167-.974c1.4-1.167,1.231-1.151,2.034-.19m9.963,1.786a1.427,1.427,0,0,1-.007,1.915l-.354.427-.99-1.088c-.915-1-.973-1.1-.769-1.279a1.428,1.428,0,0,1,2.121.025m-5.116.426c.462.339,4.172,4.273,4.5,4.769s.16,1.008-.514,1.63c-.929.857-1.278.78-2.562-.562-2.3-2.4-5.1-2.087-5.1.567A4.673,4.673,0,0,1,44.326,59c-.474.708-.5,1.193-.073,1.616.63.63,1.494.265,2.087-.883.192-.371.2-.375.43-.138.571.593,8.374,10,8.374,10.1a8,8,0,0,1-2.076,1.742c-.748.383-1.677.53-4.43.7-3.646.227-2.893-.168-6.307,3.306l-2.969,3.021-9.647-.038-9.647-.038L29.155,71.4c5-3.843,9.114-7.061,9.15-7.15,1.377-3.434,4.051-9.947,4.224-10.289a24.423,24.423,0,0,1,4.178-4,2.128,2.128,0,0,1,2.066.185m7.985,3a1.694,1.694,0,0,1,.835,1.272c0,.451-.417.96-1.952,2.382-.875.81-1.38,1.245-1.122.966a3.177,3.177,0,0,0,.823-3.277c-.38-1.028-.382-1,.079-1.281a1.128,1.128,0,0,1,1.337-.061M48.83,57.592c.6.641,1.273,1.408,1.487,1.7a3.652,3.652,0,0,0,2.129,1.355l.574.1.08.65c.154,1.258,1.417,2.757,2.321,2.757.151,0,.178.164.136.826a3.42,3.42,0,0,0,.891,2.682c.505.531.6.673.389.593S47.158,56.77,47.158,56.6c0-.488.627-.114,1.672,1m11.253-.862a1.4,1.4,0,0,1,.441,2.3c-2.728,3-4.591,3.875-5.239,2.453-.4-.884-.266-1.144,1.5-2.851,2.23-2.155,2.427-2.269,3.3-1.906m2.911,4.73c.894.894.65,1.4-1.729,3.606-1.924,1.782-2.453,1.963-3.291,1.125-.738-.738-.516-1.444.844-2.68.425-.387,1.187-1.1,1.693-1.575,1.127-1.068,1.769-1.191,2.484-.476" transform="translate(0.609 -21.905)" fill="#fff" fill-rule="evenodd"/>
</svg>
