<svg xmlns="http://www.w3.org/2000/svg" width="239.597" height="353.531" viewBox="0 0 239.597 353.531">
  <g id="Group_42" data-name="Group 42" transform="translate(-1360 -945)">
    <text id="_0" data-name="0" transform="translate(1445 1062)" fill="#8cc441" font-size="119" font-family="Lato-Bold, Lato" font-weight="700"><tspan x="0" y="0">0</tspan></text>
    <text id="_4" data-name="4" transform="translate(1517 1081)" fill="#8cc441" font-size="119" font-family="Lato-Bold, Lato" font-weight="700"><tspan x="0" y="0">4</tspan></text>
    <text id="_4-2" data-name="4" transform="translate(1367 1081)" fill="#8cc441" font-size="119" font-family="Lato-Bold, Lato" font-weight="700"><tspan x="0" y="0">4</tspan></text>
    <g id="Component_5_2" data-name="Component 5 – 2" transform="translate(1360 1035.469)">
      <path id="Path_264" data-name="Path 264" d="M538.913,135.07a356.049,356.049,0,0,0-55.22-4.065,363.348,363.348,0,0,0-50.938,3.413c0-.239.007-.477.018-.716a53.083,53.083,0,0,1,106.134.648C538.909,134.593,538.913,134.831,538.913,135.07Z" transform="translate(-372.539 -81.7)" fill="#1167eb"/>
      <g id="Group_17" data-name="Group 17" transform="translate(60.055)" opacity="0.1">
        <path id="Path_265" data-name="Path 265" d="M492.5,81.28a53.1,53.1,0,0,0-60.184,51.027c-.011.239-.014.477-.018.716,4.618-.663,9.4-1.23,14.309-1.7A53.091,53.091,0,0,1,492.5,81.28Z" transform="translate(-432.304 -80.802)" fill="#fff"/>
      </g>
      <path id="Path_266" data-name="Path 266" d="M453.329,226.185a213.812,213.812,0,0,0-23.228-4.931,336.081,336.081,0,0,0-38.74-3.723c-5.4-.221-10.909-.335-16.474-.335-4.41,0-8.785.071-13.1.214a346.741,346.741,0,0,0-37.821,3.2,222.408,222.408,0,0,0-27.521,5.579c-21.094,5.832-32.712,13.648-32.712,22.006s11.618,16.174,32.712,22.006c14.835,4.1,33.125,6.9,53.055,8.183,8.226.534,16.73.805,25.387.805,8.686,0,17.218-.274,25.469-.809,18.137-1.172,34.917-3.6,48.961-7.125.075-.021.146-.039.221-.057.948-.235,1.881-.481,2.8-.727.331-.093.659-.182.987-.271a.346.346,0,0,1,.057-.018c.314-.086.623-.175.933-.26.62-.178,1.233-.353,1.835-.534l.078-.021c.524-.157,1.037-.314,1.546-.47.417-.132.83-.26,1.24-.392q.449-.144.887-.289c.214-.071.424-.139.631-.21.281-.093.563-.189.841-.285.118-.039.235-.078.349-.121.267-.089.527-.182.787-.274.281-.1.563-.2.841-.3.232-.082.463-.167.691-.253.192-.075.381-.146.574-.217.524-.2,1.037-.4,1.543-.6.253-.1.506-.2.755-.306s.5-.2.738-.306q.6-.251,1.176-.5c.185-.086.374-.167.556-.246l.413-.189c.1-.043.2-.089.3-.135.36-.164.716-.331,1.065-.5q2.009-.962,3.751-1.967c7.286-4.172,11.13-8.8,11.13-13.609C486.041,239.834,474.424,232.017,453.329,226.185Zm-.192,43.328c-14.853,4.108-33.193,6.9-53.176,8.176-8.126.517-16.527.784-25.074.784-8.518,0-16.89-.264-24.992-.78-20.015-1.268-38.384-4.065-53.258-8.18-20.759-5.743-32.192-13.314-32.192-21.322a8.592,8.592,0,0,1,.264-2.1c1.817-7.225,12.993-13.987,31.928-19.224a222.238,222.238,0,0,1,27.311-5.547A347.716,347.716,0,0,1,362,218.116q6.37-.208,12.89-.207c5.49,0,10.919.11,16.256.324a335.384,335.384,0,0,1,38.964,3.741,213.343,213.343,0,0,1,23.029,4.9c18.932,5.237,30.1,12,31.924,19.217a8.484,8.484,0,0,1,.267,2.106C485.329,256.2,473.9,263.771,453.137,269.514Z" transform="translate(-263.734 -168.605)" fill="#3f3d56"/>
      <path id="Path_267" data-name="Path 267" d="M486.759,299.558c0,4.76-3.922,9.263-10.927,13.285-1.165.67-2.419,1.325-3.751,1.967-.349.167-.705.335-1.065.5-.1.046-.2.093-.3.135l-.413.189c-.182.078-.37.16-.556.246q-.577.251-1.176.5c-.242.1-.492.207-.738.306s-.5.2-.755.306c-.506.2-1.019.4-1.543.6-.192.071-.381.143-.574.217-.228.086-.459.171-.691.253-.278.1-.559.2-.841.3-.26.093-.52.185-.787.274-.114.043-.232.082-.349.121-.278.1-.559.192-.841.285-.207.071-.417.139-.631.21q-.438.144-.887.289c-.41.132-.823.26-1.24.392-.509.157-1.023.313-1.546.47l-.078.021c-.6.182-1.215.356-1.835.534-.31.086-.62.175-.933.26a.352.352,0,0,0-.057.018c-.328.089-.656.178-.987.271-.919.242-1.856.488-2.8.727-.075.018-.146.036-.221.057-13.663,3.413-30.425,5.9-48.975,7.1-8.126.524-16.6.8-25.3.8-8.782,0-17.325-.281-25.516-.816-48.893-3.189-85.282-15.33-85.282-29.823a8.933,8.933,0,0,1,.4-2.6c.021.061.043.118.068.178,5.084,13.353,41.162,24.144,87.975,26.777,7.172.406,14.6.616,22.2.616,7.635,0,15.091-.214,22.291-.62,46.773-2.643,82.817-13.438,87.883-26.78q.128-.321.224-.641A9.016,9.016,0,0,1,486.759,299.558Z" transform="translate(-264.655 -219.647)" fill="#3f3d56"/>
      <path id="Path_268" data-name="Path 268" d="M333.3,281.189c-5.929,0-12.231-1.276-12.231-3.64s6.3-3.64,12.231-3.64,12.231,1.276,12.231,3.64S339.233,281.189,333.3,281.189Zm0-6.567c-6.788,0-11.518,1.543-11.518,2.927s4.73,2.927,11.518,2.927,11.518-1.543,11.518-2.927S340.091,274.622,333.3,274.622Z" transform="translate(-300.645 -205.113)" fill="#3f3d56"/>
      <path id="Path_269" data-name="Path 269" d="M404.3,328.189c-5.929,0-12.231-1.276-12.231-3.64s6.3-3.64,12.231-3.64,12.231,1.276,12.231,3.64S410.233,328.189,404.3,328.189Zm0-6.567c-6.788,0-11.518,1.543-11.518,2.927s4.73,2.927,11.518,2.927,11.518-1.543,11.518-2.927S411.091,321.622,404.3,321.622Z" transform="translate(-346.351 -235.368)" fill="#3f3d56"/>
      <path id="Path_270" data-name="Path 270" d="M773.3,281.189c-5.929,0-12.231-1.276-12.231-3.64s6.3-3.64,12.231-3.64,12.231,1.276,12.231,3.64S779.233,281.189,773.3,281.189Zm0-6.567c-6.788,0-11.518,1.543-11.518,2.927s4.73,2.927,11.518,2.927,11.518-1.543,11.518-2.927S780.091,274.622,773.3,274.622Z" transform="translate(-583.89 -205.113)" fill="#3f3d56"/>
      <path id="Path_271" data-name="Path 271" d="M702.3,328.189c-5.929,0-12.231-1.276-12.231-3.64s6.3-3.64,12.231-3.64,12.231,1.276,12.231,3.64S708.233,328.189,702.3,328.189Zm0-6.567c-6.788,0-11.518,1.543-11.518,2.927s4.73,2.927,11.518,2.927,11.518-1.543,11.518-2.927S709.091,321.622,702.3,321.622Z" transform="translate(-538.185 -235.368)" fill="#3f3d56"/>
      <path id="Path_272" data-name="Path 272" d="M553.3,350.189c-5.929,0-12.231-1.276-12.231-3.64s6.3-3.64,12.231-3.64,12.231,1.276,12.231,3.64S559.233,350.189,553.3,350.189Zm0-6.567c-6.788,0-11.518,1.543-11.518,2.927s4.73,2.927,11.518,2.927,11.518-1.543,11.518-2.927S560.091,343.622,553.3,343.622Z" transform="translate(-442.268 -249.531)" fill="#3f3d56"/>
      <circle id="Ellipse_75" data-name="Ellipse 75" cx="14.967" cy="14.967" r="14.967" transform="translate(105.085 145.602)" fill="#2f2e41"/>
      <rect id="Rectangle_35" data-name="Rectangle 35" width="8.147" height="4.547" transform="translate(107.076 174.052) rotate(-26.601)" fill="#2f2e41"/>
      <ellipse id="Ellipse_76" data-name="Ellipse 76" cx="1.421" cy="3.789" rx="1.421" ry="3.789" transform="translate(102.963 174.718) rotate(-56.601)" fill="#2f2e41"/>
      <rect id="Rectangle_36" data-name="Rectangle 36" width="4.547" height="8.147" transform="translate(123.708 174.467) rotate(-63.399)" fill="#2f2e41"/>
      <ellipse id="Ellipse_77" data-name="Ellipse 77" cx="3.789" cy="1.421" rx="3.789" ry="1.421" transform="translate(129.249 176.518) rotate(-33.399)" fill="#2f2e41"/>
      <circle id="Ellipse_78" data-name="Ellipse 78" cx="5.115" cy="5.115" r="5.115" transform="translate(113.889 151.792)" fill="#fff"/>
      <ellipse id="Ellipse_79" data-name="Ellipse 79" cx="1.698" cy="1.71" rx="1.698" ry="1.71" transform="translate(116.631 154.709) rotate(-45)" fill="#3f3d56"/>
      <path id="Path_273" data-name="Path 273" d="M593.818,466.842c.225-5.541-4.551-10.235-10.667-10.483s-11.257,4.042-11.482,9.583,4.026,6.8,10.143,7.049S593.593,472.383,593.818,466.842Z" transform="translate(-461.958 -322.556)" fill="#1167eb"/>
      <ellipse id="Ellipse_80" data-name="Ellipse 80" cx="2.349" cy="7.484" rx="2.349" ry="7.484" transform="translate(128.955 158.581) rotate(-40.645)" fill="#2f2e41"/>
      <ellipse id="Ellipse_81" data-name="Ellipse 81" cx="7.484" cy="2.349" rx="7.484" ry="2.349" transform="translate(97.876 166.875) rotate(-49.355)" fill="#2f2e41"/>
      <path id="Path_274" data-name="Path 274" d="M600.035,544.851a3.41,3.41,0,1,1-6.71,1.222v-.007c-.336-1.853,1.1-2.509,2.951-2.845S599.7,543,600.035,544.851Z" transform="translate(-475.872 -378.384)" fill="#fff"/>
      <path id="Path_275" data-name="Path 275" d="M528.447,497.661a.713.713,0,0,1-.713-.712V454.91a.713.713,0,0,1,1.425,0v42.039A.713.713,0,0,1,528.447,497.661Z" transform="translate(-433.681 -321.171)" fill="#ccc"/>
      <path id="Path_276" data-name="Path 276" d="M498.447,624.26a.713.713,0,0,1-.713-.712V592.91a.713.713,0,0,1,1.425,0v30.638a.713.713,0,0,1-.712.713Z" transform="translate(-414.369 -410.007)" fill="#ccc"/>
      <path id="Path_277" data-name="Path 277" d="M575.447,532.661a.713.713,0,0,1-.713-.713V489.91a.713.713,0,0,1,1.425,0v42.039A.713.713,0,0,1,575.447,532.661Z" transform="translate(-463.937 -343.702)" fill="#ccc"/>
      <path id="Path_278" data-name="Path 278" d="M546.447,662.723a.713.713,0,0,1-.713-.713v-17.1a.713.713,0,0,1,1.425,0v17.1A.713.713,0,0,1,546.447,662.723Z" transform="translate(-445.269 -443.481)" fill="#ccc"/>
      <path id="Path_279" data-name="Path 279" d="M587.447,416.723a.713.713,0,0,1-.713-.712v-17.1a.713.713,0,0,1,1.425,0v17.1A.712.712,0,0,1,587.447,416.723Z" transform="translate(-471.662 -285.121)" fill="#ccc"/>
      <path id="Path_280" data-name="Path 280" d="M487.447,437.723a.713.713,0,0,1-.713-.712v-17.1a.713.713,0,1,1,1.425,0v17.1a.713.713,0,0,1-.712.713Z" transform="translate(-407.288 -298.64)" fill="#ccc"/>
      <path id="Path_281" data-name="Path 281" d="M661.447,442.723a.713.713,0,0,1-.713-.713v-17.1a.713.713,0,0,1,1.425,0v17.1a.713.713,0,0,1-.713.713Z" transform="translate(-519.298 -301.859)" fill="#ccc"/>
      <path id="Path_282" data-name="Path 282" d="M657.447,586.285a.713.713,0,0,1-.713-.712V564.91a.713.713,0,0,1,1.425,0v20.663A.713.713,0,0,1,657.447,586.285Z" transform="translate(-516.724 -391.982)" fill="#ccc"/>
      <path id="Path_283" data-name="Path 283" d="M617.447,619.26a.713.713,0,0,1-.713-.713V587.91a.713.713,0,0,1,1.425,0v30.638A.713.713,0,0,1,617.447,619.26Z" transform="translate(-490.974 -406.788)" fill="#ccc"/>
      <path id="Path_284" data-name="Path 284" d="M625.447,451.661a.713.713,0,0,1-.713-.712V408.91a.712.712,0,1,1,1.425,0v42.039a.713.713,0,0,1-.712.713Z" transform="translate(-496.124 -291.559)" fill="#ccc"/>
      <ellipse id="Ellipse_82" data-name="Ellipse 82" cx="2.408" cy="7.672" rx="2.408" ry="7.672" transform="translate(204.98 239.342) rotate(-39.938)" fill="#2f2e41"/>
      <circle id="Ellipse_83" data-name="Ellipse 83" cx="15.343" cy="15.343" r="15.343" transform="matrix(0.316, -0.949, 0.949, 0.316, 176.023, 250.717)" fill="#2f2e41"/>
      <rect id="Rectangle_37" data-name="Rectangle 37" width="4.661" height="8.351" transform="translate(197.264 253.053)" fill="#2f2e41"/>
      <rect id="Rectangle_38" data-name="Rectangle 38" width="4.661" height="8.351" transform="translate(187.942 253.053)" fill="#2f2e41"/>
      <ellipse id="Ellipse_84" data-name="Ellipse 84" cx="3.884" cy="1.457" rx="3.884" ry="1.457" transform="translate(194.157 260.045)" fill="#2f2e41"/>
      <ellipse id="Ellipse_85" data-name="Ellipse 85" cx="3.884" cy="1.457" rx="3.884" ry="1.457" transform="translate(184.834 259.851)" fill="#2f2e41"/>
      <path id="Path_285" data-name="Path 285" d="M798.382,689.394c1.37-5.517,7.418-8.764,13.508-7.252s9.916,7.211,8.546,12.728-5.915,5.535-12.005,4.023S797.011,694.911,798.382,689.394Z" transform="translate(-607.768 -467.669)" fill="#ccc"/>
      <ellipse id="Ellipse_86" data-name="Ellipse 86" cx="2.408" cy="7.672" rx="2.408" ry="7.672" transform="translate(170.187 232.781) rotate(-64.626)" fill="#2f2e41"/>
      <circle id="Ellipse_87" data-name="Ellipse 87" cx="5.115" cy="5.115" r="5.115" transform="translate(188.022 232.659)" fill="#fff"/>
      <circle id="Ellipse_88" data-name="Ellipse 88" cx="1.705" cy="1.705" r="1.705" transform="translate(189.33 234.236)" fill="#3f3d56"/>
      <circle id="Ellipse_89" data-name="Ellipse 89" cx="2.138" cy="2.138" r="2.138" transform="translate(190.956 246.317)" fill="#fff"/>
      <path id="Path_286" data-name="Path 286" d="M782.7,817.91H698.622a.356.356,0,0,1,0-.713H782.7a.356.356,0,0,1,0,.713Z" transform="translate(-543.459 -554.848)" fill="#3f3d56"/>
    </g>
  </g>
</svg>
