<svg id="Component_15_1" data-name="Component 15 – 1" xmlns="http://www.w3.org/2000/svg" width="457.611" height="477.105" viewBox="0 0 457.611 477.105">
  <g id="Group_26" data-name="Group 26" transform="translate(-164.322)" opacity="0.816">
    <circle id="Ellipse_94" data-name="Ellipse 94" cx="57.731" cy="57.731" r="57.731" transform="translate(480.873 322.698)" fill="#2f2e41"/>
    <path id="Path_256" data-name="Path 256" d="M758.758,654.726,742.8,647.438,757.126,613.9l15.953,7.288Z" transform="translate(-261.279 -203.193)" fill="#2f2e41"/>
    <rect id="Rectangle_65" data-name="Rectangle 65" width="17.538" height="31.423" transform="translate(527.751 425.287) rotate(24.554)" fill="#2f2e41"/>
    <ellipse id="Ellipse_95" data-name="Ellipse 95" cx="5.481" cy="14.615" rx="5.481" ry="14.615" transform="matrix(0.815, -0.58, 0.58, 0.815, 511.688, 453.292)" fill="#2f2e41"/>
    <ellipse id="Ellipse_96" data-name="Ellipse 96" cx="5.481" cy="14.615" rx="5.481" ry="14.615" transform="matrix(0.815, -0.58, 0.58, 0.815, 479.185, 443.976)" fill="#2f2e41"/>
    <circle id="Ellipse_97" data-name="Ellipse 97" cx="19.731" cy="19.731" r="19.731" transform="translate(526.276 348.012)" fill="#fff"/>
    <circle id="Ellipse_98" data-name="Ellipse 98" cx="6.577" cy="6.577" r="6.577" transform="translate(532.308 352.3)" fill="#3f3d56"/>
    <path id="Path_257" data-name="Path 257" d="M908.855,541c4.435-20.925,26.755-33.92,49.852-29.025s38.225,25.828,33.79,46.753-21.525,21.583-44.622,16.687S904.42,561.921,908.855,541Z" transform="translate(-398.878 -232.671)" fill="#8ec83e"/>
    <ellipse id="Ellipse_99" data-name="Ellipse 99" cx="9.062" cy="28.865" rx="9.062" ry="28.865" transform="translate(563.782 391.759) rotate(-88.617)" fill="#2f2e41"/>
    <ellipse id="Ellipse_100" data-name="Ellipse 100" cx="9.062" cy="28.865" rx="9.062" ry="28.865" transform="translate(449.314 382.043) rotate(-88.617)" fill="#2f2e41"/>
    <path id="Path_258" data-name="Path 258" d="M919.994,688.328a13.154,13.154,0,1,0,23.928,10.932c3.019-6.608-1.713-10.424-8.32-13.442S923.013,681.72,919.994,688.328Z" transform="translate(-402.372 -289.767)" fill="#fff"/>
    <path id="Path_278" data-name="Path 278" d="M789.6,463.94c.052,108.155-64.226,145.945-143.534,145.983q-2.763,0-5.5-.059-5.513-.116-10.912-.5c-71.58-5.033-127.215-44.7-127.263-145.288-.051-104.092,132.922-235.518,142.895-245.236.009,0,.009,0,.018-.009.379-.37.573-.556.573-.556S789.551,355.794,789.6,463.94Z" transform="translate(-264.547 -135.804)" fill="#8ec83e"/>
    <path id="Path_279" data-name="Path 279" d="M680.726,593.383l52.486-73.41L680.6,601.439l-.137,8.426q-5.513-.116-10.912-.5l5.606-108.2-.044-.837.1-.159.533-10.224-52.826-81.617L675.9,482.286l.133,2.168,4.235-81.751-45.23-84.344,45.778,69.978,4.369-169.493.017-.564v.555L684.522,352.5l44.951-53.011-45.14,64.522-1.154,73.2,41.982-70.267L683.018,447.97l-.641,40.7L743.3,390.863l-61.158,112.01Z" transform="translate(-304.437 -135.804)" fill="#3f3d56"/>
    <circle id="Ellipse_103" data-name="Ellipse 103" cx="3.345" cy="3.345" r="3.345" transform="translate(164.322 13.38)" fill="#cfcce0"/>
    <circle id="Ellipse_104" data-name="Ellipse 104" cx="3.345" cy="3.345" r="3.345" transform="translate(193.09 110.387)" fill="#cfcce0"/>
    <circle id="Ellipse_105" data-name="Ellipse 105" cx="3.345" cy="3.345" r="3.345" transform="translate(399.146 133.133)" fill="#cfcce0"/>
    <circle id="Ellipse_106" data-name="Ellipse 106" cx="3.345" cy="3.345" r="3.345" transform="translate(540.307 240.175)" fill="#cfcce0"/>
    <circle id="Ellipse_107" data-name="Ellipse 107" cx="3.345" cy="3.345" r="3.345" transform="translate(452.667 316.443)" fill="#cfcce0"/>
    <circle id="Ellipse_108" data-name="Ellipse 108" cx="3.345" cy="3.345" r="3.345" transform="translate(262.667 341.196)" fill="#cfcce0"/>
    <circle id="Ellipse_109" data-name="Ellipse 109" cx="7.359" cy="7.359" r="7.359" transform="translate(353.653)" fill="#cfcce0"/>
    <circle id="Ellipse_110" data-name="Ellipse 110" cx="7.359" cy="7.359" r="7.359" transform="translate(326.223 382.006)" fill="#cfcce0"/>
    <circle id="Ellipse_111" data-name="Ellipse 111" cx="7.359" cy="7.359" r="7.359" transform="translate(494.814 121.091)" fill="#cfcce0"/>
    <circle id="Ellipse_112" data-name="Ellipse 112" cx="7.359" cy="7.359" r="7.359" transform="translate(287.421 228.802)" fill="#cfcce0"/>
    <rect id="Rectangle_66" data-name="Rectangle 66" width="376.453" height="1.338" transform="translate(192.63 473.661)" fill="#3f3d56"/>
  </g>
</svg>
