<svg id="Component_7_1" data-name="Component 7 – 1" xmlns="http://www.w3.org/2000/svg" width="477.481" height="202.513" viewBox="0 0 477.481 202.513">
  <path id="Path_542" data-name="Path 542" d="M707.72,496.986H473.613a.649.649,0,0,1-.648-.648V343.292a.648.648,0,1,1,1.3,0v152.4H707.72a.649.649,0,1,1,0,1.3Z" transform="translate(-306.825 -301.733)" fill="#3f3d56"/>
  <path id="Path_543" data-name="Path 543" d="M707.72,561.985H473.613a.648.648,0,1,1,0-1.3H707.72a.648.648,0,0,1,0,1.3Z" transform="translate(-306.825 -397.212)" fill="#3f3d56"/>
  <path id="Path_544" data-name="Path 544" d="M708.3,518.145H474.19a.648.648,0,1,1,0-1.3H708.3a.648.648,0,0,1,0,1.3Z" transform="translate(-307.077 -378.015)" fill="#3f3d56"/>
  <path id="Path_545" data-name="Path 545" d="M708.3,474.306H474.19a.648.648,0,1,1,0-1.3H708.3a.648.648,0,0,1,0,1.3Z" transform="translate(-307.077 -358.819)" fill="#3f3d56"/>
  <path id="Path_546" data-name="Path 546" d="M708.3,430.466H474.19a.648.648,0,1,1,0-1.3H708.3a.649.649,0,0,1,0,1.3Z" transform="translate(-307.077 -339.622)" fill="#3f3d56"/>
  <path id="Path_547" data-name="Path 547" d="M708.3,386.626H474.19a.648.648,0,1,1,0-1.3H708.3a.648.648,0,1,1,0,1.3Z" transform="translate(-307.077 -320.425)" fill="#3f3d56"/>
  <path id="Path_548" data-name="Path 548" d="M708.3,342.787H474.19a.648.648,0,1,1,0-1.3H708.3a.649.649,0,0,1,0,1.3Z" transform="translate(-307.077 -301.228)" fill="#3f3d56"/>
  <path id="Path_549" data-name="Path 549" d="M505.661,591.8h-8.175a3.8,3.8,0,0,1-3.791-3.791V565.461a3.8,3.8,0,0,1,3.791-3.791h8.175a3.8,3.8,0,0,1,3.791,3.791v22.547a3.8,3.8,0,0,1-3.791,3.791Z" transform="translate(-315.902 -397.642)" fill="#8cc441"/>
  <path id="Path_550" data-name="Path 550" d="M566.229,576.927h-8.175a3.8,3.8,0,0,1-3.791-3.791V531.5a3.8,3.8,0,0,1,3.792-3.791h8.175a3.8,3.8,0,0,1,3.791,3.791v41.638a3.8,3.8,0,0,1-3.792,3.791Z" transform="translate(-342.424 -382.77)" fill="#8cc441"/>
  <path id="Path_551" data-name="Path 551" d="M687.365,541.933H679.19a3.8,3.8,0,0,1-3.791-3.791V451.583a3.8,3.8,0,0,1,3.791-3.791h8.175a3.8,3.8,0,0,1,3.791,3.791v86.559A3.8,3.8,0,0,1,687.365,541.933Z" transform="translate(-395.467 -347.777)" fill="#e6e6e6"/>
  <path id="Path_552" data-name="Path 552" d="M626.22,565.024h-8.175a3.8,3.8,0,0,1-3.791-3.791V504.316a3.8,3.8,0,0,1,3.791-3.791h8.175a3.8,3.8,0,0,1,3.791,3.791v56.917a3.8,3.8,0,0,1-3.792,3.791Z" transform="translate(-368.693 -370.868)" fill="#8cc441"/>
  <path id="Path_553" data-name="Path 553" d="M747.932,524.187h-8.175a3.8,3.8,0,0,1-3.791-3.791V411.055a3.8,3.8,0,0,1,3.791-3.791h8.175a3.8,3.8,0,0,1,3.791,3.791V520.4a3.8,3.8,0,0,1-3.791,3.791Z" transform="translate(-421.989 -330.03)" fill="#8cc441"/>
  <path id="Path_554" data-name="Path 554" d="M808.5,541.933h-8.175a3.8,3.8,0,0,1-3.791-3.791V451.583a3.8,3.8,0,0,1,3.791-3.791H808.5a3.8,3.8,0,0,1,3.791,3.791v86.559A3.8,3.8,0,0,1,808.5,541.933Z" transform="translate(-448.511 -347.777)" fill="#8cc441"/>
  <path id="Path_555" data-name="Path 555" d="M869.068,495.31h-8.175a3.8,3.8,0,0,1-3.791-3.791V345.109a3.8,3.8,0,0,1,3.791-3.791h8.175a3.8,3.8,0,0,1,3.791,3.791v146.41a3.8,3.8,0,0,1-3.791,3.791Z" transform="translate(-475.033 -301.153)" fill="#e6e6e6"/>
  <circle id="Ellipse_177" data-name="Ellipse 177" cx="23.616" cy="23.616" r="23.616" transform="translate(261.959 18.632)" fill="#2f2e41"/>
  <rect id="Rectangle_68" data-name="Rectangle 68" width="12.854" height="7.174" transform="translate(265.102 63.521) rotate(-26.601)" fill="#2f2e41"/>
  <ellipse id="Ellipse_178" data-name="Ellipse 178" cx="2.242" cy="5.979" rx="2.242" ry="5.979" transform="translate(258.611 64.572) rotate(-56.601)" fill="#2f2e41"/>
  <rect id="Rectangle_69" data-name="Rectangle 69" width="7.174" height="12.854" transform="translate(291.342 64.176) rotate(-63.399)" fill="#2f2e41"/>
  <ellipse id="Ellipse_179" data-name="Ellipse 179" cx="5.979" cy="2.242" rx="5.979" ry="2.242" transform="translate(300.087 67.413) rotate(-33.399)" fill="#2f2e41"/>
  <circle id="Ellipse_180" data-name="Ellipse 180" cx="8.071" cy="8.071" r="8.071" transform="translate(275.85 28.4)" fill="#fff"/>
  <ellipse id="Ellipse_181" data-name="Ellipse 181" cx="2.679" cy="2.698" rx="2.679" ry="2.698" transform="translate(280.177 39.747) rotate(-45)" fill="#3f3d56"/>
  <path id="Path_556" data-name="Path 556" d="M691.348,286.421c.355-8.743-7.18-16.148-16.83-16.54S656.756,276.259,656.4,285s6.353,10.729,16,11.121S690.992,295.164,691.348,286.421Z" transform="translate(-387.143 -269.865)" fill="#1167eb"/>
  <ellipse id="Ellipse_182" data-name="Ellipse 182" cx="3.707" cy="11.808" rx="3.707" ry="11.808" transform="translate(299.622 39.111) rotate(-40.645)" fill="#2f2e41"/>
  <ellipse id="Ellipse_183" data-name="Ellipse 183" cx="11.808" cy="3.707" rx="11.808" ry="3.707" transform="translate(250.586 52.198) rotate(-49.355)" fill="#2f2e41"/>
  <path id="Path_557" data-name="Path 557" d="M688.669,359.394a5.381,5.381,0,0,1-10.588,1.927l0-.01c-.529-2.924,1.732-3.959,4.656-4.488S688.139,356.47,688.669,359.394Z" transform="translate(-396.608 -307.84)" fill="#fff"/>
  <ellipse id="Ellipse_184" data-name="Ellipse 184" cx="3.8" cy="12.104" rx="3.8" ry="12.104" transform="translate(456.113 159.23) rotate(-39.938)" fill="#2f2e41"/>
  <circle id="Ellipse_185" data-name="Ellipse 185" cx="24.209" cy="24.209" r="24.209" transform="matrix(0.316, -0.949, 0.949, 0.316, 410.425, 177.178)" fill="#2f2e41"/>
  <rect id="Rectangle_70" data-name="Rectangle 70" width="7.355" height="13.177" transform="translate(443.939 180.863)" fill="#2f2e41"/>
  <rect id="Rectangle_71" data-name="Rectangle 71" width="7.355" height="13.177" transform="translate(429.23 180.863)" fill="#2f2e41"/>
  <ellipse id="Ellipse_186" data-name="Ellipse 186" cx="6.129" cy="2.298" rx="6.129" ry="2.298" transform="translate(439.036 191.895)" fill="#2f2e41"/>
  <ellipse id="Ellipse_187" data-name="Ellipse 187" cx="6.129" cy="2.298" rx="6.129" ry="2.298" transform="translate(424.327 191.589)" fill="#2f2e41"/>
  <path id="Path_558" data-name="Path 558" d="M948.234,494.315c2.162-8.705,11.7-13.828,21.312-11.443s15.646,11.377,13.484,20.083-9.333,8.734-18.942,6.348S946.073,503.02,948.234,494.315Z" transform="translate(-514.789 -362.881)" fill="#ccc"/>
  <ellipse id="Ellipse_188" data-name="Ellipse 188" cx="3.8" cy="12.104" rx="3.8" ry="12.104" transform="translate(401.216 148.877) rotate(-64.626)" fill="#2f2e41"/>
  <circle id="Ellipse_189" data-name="Ellipse 189" cx="8.071" cy="8.071" r="8.071" transform="translate(429.357 148.685)" fill="#fff"/>
  <circle id="Ellipse_190" data-name="Ellipse 190" cx="2.69" cy="2.69" r="2.69" transform="translate(431.42 151.173)" fill="#3f3d56"/>
  <path id="Path_559" data-name="Path 559" d="M956.283,576.464a5.381,5.381,0,1,1-10.588,1.927l0-.01c-.529-2.924,1.731-3.959,4.656-4.488S955.754,573.54,956.283,576.464Z" transform="translate(-513.792 -402.892)" fill="#fff"/>
  <path id="Path_560" data-name="Path 560" d="M894.244,510.175h-8.175a3.8,3.8,0,0,1-3.791-3.791V359.974a3.8,3.8,0,0,1,3.791-3.791h8.175a3.8,3.8,0,0,1,3.791,3.791v146.41A3.8,3.8,0,0,1,894.244,510.175Z" transform="translate(-486.057 -307.662)" fill="#8cc441"/>
  <circle id="Ellipse_191" data-name="Ellipse 191" cx="24.209" cy="24.209" r="24.209" transform="translate(39.953 137.656)" fill="#2f2e41"/>
  <rect id="Rectangle_72" data-name="Rectangle 72" width="7.355" height="13.177" transform="translate(53.13 180.863)" fill="#2f2e41"/>
  <rect id="Rectangle_73" data-name="Rectangle 73" width="7.355" height="13.177" transform="translate(67.839 180.863)" fill="#2f2e41"/>
  <ellipse id="Ellipse_192" data-name="Ellipse 192" cx="6.129" cy="2.298" rx="6.129" ry="2.298" transform="translate(53.13 191.895)" fill="#2f2e41"/>
  <ellipse id="Ellipse_193" data-name="Ellipse 193" cx="6.129" cy="2.298" rx="6.129" ry="2.298" transform="translate(67.839 191.589)" fill="#2f2e41"/>
  <circle id="Ellipse_194" data-name="Ellipse 194" cx="8.274" cy="8.274" r="8.274" transform="translate(56.501 147.462)" fill="#fff"/>
  <circle id="Ellipse_195" data-name="Ellipse 195" cx="2.758" cy="2.758" r="2.758" transform="translate(62.017 152.977)" fill="#3f3d56"/>
  <path id="Path_561" data-name="Path 561" d="M249.49,502.006c-1.955-8.754,4.294-17.6,13.957-19.758s19.081,3.19,21.035,11.944-4.449,11.983-14.112,14.141S251.445,510.761,249.49,502.006Z" transform="translate(-208.811 -362.655)" fill="#ccc"/>
  <ellipse id="Ellipse_196" data-name="Ellipse 196" cx="12.104" cy="3.8" rx="12.104" ry="3.8" transform="matrix(0.357, -0.934, 0.934, 0.357, 70.393, 83.972)" fill="#2f2e41"/>
  <circle id="Ellipse_197" data-name="Ellipse 197" cx="24.209" cy="24.209" r="24.209" transform="translate(28.114 112.32) rotate(-80.783)" fill="#2f2e41"/>
  <rect id="Rectangle_74" data-name="Rectangle 74" width="7.355" height="13.177" transform="translate(44.857 111.302)" fill="#2f2e41"/>
  <rect id="Rectangle_75" data-name="Rectangle 75" width="7.355" height="13.177" transform="translate(59.566 111.302)" fill="#2f2e41"/>
  <ellipse id="Ellipse_198" data-name="Ellipse 198" cx="6.129" cy="2.298" rx="6.129" ry="2.298" transform="translate(44.857 122.334)" fill="#2f2e41"/>
  <ellipse id="Ellipse_199" data-name="Ellipse 199" cx="6.129" cy="2.298" rx="6.129" ry="2.298" transform="translate(59.566 122.027)" fill="#2f2e41"/>
  <circle id="Ellipse_200" data-name="Ellipse 200" cx="8.274" cy="8.274" r="8.274" transform="matrix(1, -0.029, 0.029, 1, 47.987, 78.147)" fill="#fff"/>
  <circle id="Ellipse_201" data-name="Ellipse 201" cx="2.758" cy="2.758" r="2.758" transform="translate(53.743 83.416)" fill="#3f3d56"/>
  <path id="Path_562" data-name="Path 562" d="M234.771,378.256c-1.955-8.754,4.294-17.6,13.957-19.758s19.081,3.19,21.035,11.944-4.449,11.983-14.112,14.141S236.726,387.01,234.771,378.256Z" transform="translate(-202.366 -308.467)" fill="#1167eb"/>
  <ellipse id="Ellipse_202" data-name="Ellipse 202" cx="3.8" cy="12.104" rx="3.8" ry="12.104" transform="translate(16.057 79.316) rotate(-64.626)" fill="#2f2e41"/>
  <path id="Path_563" data-name="Path 563" d="M255.672,447.319c0,2.369,6.1,7.048,12.87,7.048s13.117-6.671,13.117-9.04-6.347.46-13.117.46S255.672,444.95,255.672,447.319Z" transform="translate(-211.675 -346.283)" fill="#fff"/>
  <path id="Path_564" data-name="Path 564" d="M669.281,430.318l-7.934,1.972a3.8,3.8,0,0,1-4.594-2.765l-20.875-84a3.8,3.8,0,0,1,2.765-4.594l7.934-1.972a3.8,3.8,0,0,1,4.594,2.765l20.875,84a3.8,3.8,0,0,1-2.765,4.594Z" transform="translate(-378.113 -300.069)" fill="#8cc441"/>
  <path id="Path_565" data-name="Path 565" d="M340.874,404.554l-17.82,3.478a1.934,1.934,0,0,1-1.641-.434,1.966,1.966,0,0,1-.684-1.585,46.6,46.6,0,0,0-4.146-21.24,1.967,1.967,0,0,1,.038-1.726,1.933,1.933,0,0,1,1.358-1.02l17.82-3.478a1.959,1.959,0,0,1,2.208,1.242,76.274,76.274,0,0,1,4.447,22.782,1.959,1.959,0,0,1-1.579,1.981Z" transform="translate(-238.268 -317.441)" fill="#8cc441"/>
  <path id="Path_566" data-name="Path 566" d="M201.874,433.554l-17.82,3.478a1.934,1.934,0,0,1-1.641-.434,1.966,1.966,0,0,1-.684-1.585,46.6,46.6,0,0,0-4.146-21.24,1.967,1.967,0,0,1,.038-1.726,1.934,1.934,0,0,1,1.358-1.02l17.82-3.478a1.959,1.959,0,0,1,2.208,1.242,76.275,76.275,0,0,1,4.447,22.782,1.959,1.959,0,0,1-1.579,1.981Z" transform="translate(-177.402 -330.139)" fill="#ccc"/>
  <circle id="Ellipse_203" data-name="Ellipse 203" cx="6.183" cy="6.183" r="6.183" transform="translate(134.864 34.727)" fill="#e6e6e6"/>
  <circle id="Ellipse_204" data-name="Ellipse 204" cx="6.183" cy="6.183" r="6.183" transform="translate(134.864 59.37)" fill="#e6e6e6"/>
  <circle id="Ellipse_205" data-name="Ellipse 205" cx="6.183" cy="6.183" r="6.183" transform="translate(134.864 84.012)" fill="#e6e6e6"/>
  <circle id="Ellipse_206" data-name="Ellipse 206" cx="6.183" cy="6.183" r="6.183" transform="translate(134.864 108.655)" fill="#e6e6e6"/>
  <circle id="Ellipse_207" data-name="Ellipse 207" cx="6.183" cy="6.183" r="6.183" transform="translate(134.864 133.298)" fill="#e6e6e6"/>
  <circle id="Ellipse_208" data-name="Ellipse 208" cx="6.183" cy="6.183" r="6.183" transform="translate(134.864 157.941)" fill="#e6e6e6"/>
</svg>
